<svg xmlns="http://www.w3.org/2000/svg" width="256" height="256"><path fill="#1976D2" fill-opacity=".016" fill-rule="evenodd" d="M0 128.004v128.004l128.25-.254 128.25-.254.254-127.75L257.008 0H0v128.004m.485.496c0 70.4.119 99.053.265 63.672.146-35.38.146-92.98 0-128C.604 29.153.485 58.1.485 128.5"/><path fill="#1976D2" fill-opacity=".051" fill-rule="evenodd" d="M105.922 1.492C58.963 10.366 21.398 42.707 6.599 87 1.869 101.16 0 112.769 0 128c0 60.214 39.7 110.15 99.5 125.154 10.351 2.597 34.921 3.599 46.549 1.899 40.723-5.954 76.113-30.918 95.485-67.355 5.12-9.631 10.878-26.306 12.498-36.198.631-3.85 1.557-7.781 2.058-8.736 1.065-2.032 1.253-31.441.194-30.381-.394.393-1.305-2.769-2.024-7.029-1.794-10.621-7.489-27.201-12.726-37.052C223.925 35.182 194.35 12.41 156.5 2.828 145.856.134 117.124-.625 105.922 1.492m97.814 52.2c-2.442.637-4.993 5.903-4.169 8.608 1.087 3.571 3.548 5.7 6.588 5.7 6.546 0 9.421-8.828 4.21-12.927-2.645-2.081-3.368-2.232-6.629-1.381m-30.411 18.715c-9.225 4.165-9.225 17.095.002 21.883 10.174 5.28 21.716-5.072 17.337-15.551-2.652-6.348-10.751-9.306-17.339-6.332M120.244 87.1c-13.511 2.276-27.301 12.381-33.012 24.19-4.166 8.613-5.567 15.511-4.988 24.557 1.188 18.549 12.69 33.885 30.256 40.339 4.619 1.696 8.187 2.204 15.5 2.204 7.313 0 10.881-.508 15.5-2.204 17.536-6.443 29.068-21.794 30.252-40.268.576-8.994-.76-16.015-4.507-23.68-3.325-6.803-11-15.424-16.708-18.769-9.505-5.571-22.188-8.072-32.293-6.369M121 98.391c-11.354 2.524-20.135 9.401-24.852 19.461-2.286 4.875-2.646 6.948-2.637 15.148.01 8.498.319 10.111 2.932 15.29 3.562 7.062 9.819 13.012 17.382 16.528 4.715 2.192 7.117 2.642 14.196 2.66 7.636.02 9.215-.319 15.197-3.265 7.402-3.643 13.224-9.495 16.912-16.997 1.924-3.912 2.324-6.336 2.345-14.216.021-8.177-.336-10.266-2.569-15-6.859-14.541-23.646-23.002-38.906-19.609M.402 128c0 8.525.154 12.012.341 7.75.188-4.262.188-11.237 0-15.5-.187-4.263-.341-.775-.341 7.75m121.223-13.531c-19.464 6.938-15.784 35.609 4.789 37.315 15.329 1.272 25.866-14.197 18.994-27.886-1.938-3.86-7.839-8.646-12.131-9.838-4.868-1.352-6.914-1.28-11.652.409"/><path fill="#1976D2" fill-opacity=".181" fill-rule="evenodd" d="M111.635 1.065C70.072 6.825 34.367 31.84 14.609 69.041 4.917 87.291.556 105.587.556 128c0 17.092 1.405 25.973 6.568 41.5 12.052 36.245 43.2 67.318 79.653 79.462 15.218 5.07 24.198 6.482 41.223 6.482 17.092 0 25.973-1.405 41.5-6.568 43.823-14.572 78.79-56.443 84.66-101.376.575-4.4 1.449-8.781 1.943-9.736 1.264-2.447 1.17-21.051-.103-20.264-.596.368-1-.837-1-2.983 0-5.3-2.727-17.765-6.13-28.017-10.148-30.576-34.582-58.321-64.647-73.407-7.915-3.971-21.358-8.463-31.723-10.599-9.624-1.984-31.374-2.745-40.865-1.429m89.438 54.57c-3.502 4.451-2.621 9.513 2.077 11.943 3.676 1.9 7.669.287 9.681-3.912 3.649-7.612-6.588-14.604-11.758-8.031m-31.191 19.247c-3.181 3.182-3.879 4.581-3.867 7.75.019 5.055 1.737 8.284 5.897 11.088 6.189 4.17 15.482 1.823 18.809-4.75.687-1.359 1.256-4.21 1.264-6.338.012-3.169-.686-4.568-3.867-7.75C184.597 71.361 183.748 71 179 71s-5.597.361-9.118 3.882m-53.777 12.701c-7.853 2.111-14.762 6.17-21.14 12.417-10.018 9.814-15.295 25.723-13.046 39.337C85.777 162.702 104.712 179 128 179c18.313 0 34.114-9.935 41.921-26.359 7.276-15.305 5.976-31.749-3.668-46.403-10.438-15.859-31.463-23.68-50.148-18.655m-.375 12.777c-6.769 2.854-11.696 6.418-15.171 10.974-14.248 18.68-6.631 45.462 15.28 53.723 4.627 1.745 7.213 2.058 14.161 1.716 10.623-.523 16.558-3.321 23.758-11.198 6.359-6.958 8.723-13.375 8.686-23.575-.048-13.032-6.631-23.623-18.676-30.043-5.304-2.827-7.498-3.394-14.268-3.686-6.724-.289-8.92.044-13.77 2.089m3.245 14.89c-11.568 5.851-14.339 20.571-5.721 30.387 4.254 4.844 8.316 6.686 14.746 6.686 21.512 0 27.579-29.498 7.768-37.775-5.271-2.203-11.571-1.939-16.793.702M.37 128c0 5.775.165 8.137.367 5.25.202-2.887.202-7.612 0-10.5S.37 122.225.37 128"/><path fill="#1976D2" fill-opacity=".103" fill-rule="evenodd" d="M121.5 1.056c-1.65.545-4.427.741-6.172.436-1.863-.325-3.461-.087-3.871.578-.406.657-1.908.89-3.578.556-1.755-.351-2.879-.153-2.879.507 0 .657-.986.836-2.5.456-1.567-.393-2.5-.203-2.5.509 0 .643-.867.909-2 .612-1.1-.287-2-.062-2 .5 0 .563-.9.788-2 .5-1.1-.287-2-.067-2 .491 0 .557-.675.754-1.5.437-.825-.316-1.5-.091-1.5.5 0 .592-.675.817-1.5.5-.825-.316-1.5-.091-1.5.5 0 .592-.675.817-1.5.5-.825-.316-1.5-.113-1.5.452 0 .566-.419.769-.931.453-.512-.317-1.218-.111-1.569.457-.351.568-1.057.774-1.569.457-.512-.316-.931-.072-.931.543s-.45.84-1 .5c-.55-.34-1-.218-1 .27 0 .875-10.006 5.986-10.688 5.459-.193-.149-1.31.623-2.483 1.716-1.172 1.092-2.467 1.779-2.876 1.526-.409-.253-1.026.277-1.372 1.178-.345.9-.864 1.401-1.153 1.113-.288-.289-1.515.309-2.726 1.329-1.211 1.019-4.227 3.465-6.702 5.436-5.332 4.245-15 13.262-15 13.99 0 .733-9.081 11.84-10.398 12.718-.644.429-.686.754-.102.781.55.026.126.708-.941 1.516-1.068.807-1.625 1.468-1.238 1.468s-.352 1.688-1.643 3.75c-1.291 2.063-3.183 5.662-4.205 8-1.022 2.338-2.248 4.25-2.724 4.25-.477 0-.589.45-.249 1 .34.55.141 1-.441 1s-1.006.338-.941.75c.066.412.032.975-.074 1.25s-.397 1.625-.647 3-.867 2.642-1.37 2.815c-.503.173-.667.96-.364 1.75.303.789.165 1.436-.306 1.437-.471.001-.96 1.46-1.086 3.243-.126 1.782-.64 3.378-1.144 3.546-.503.168-.685 1.183-.404 2.257.285 1.09.009 1.952-.625 1.952-.712 0-.902.933-.509 2.5.392 1.559.204 2.5-.5 2.5-.696 0-.893.934-.514 2.443.337 1.344.236 3.031-.225 3.75-1.917 2.987-1.904 30.562.016 33.614.452.719.546 2.406.209 3.75-.381 1.516-.182 2.443.523 2.443.672 0 .94 1.02.657 2.5-.263 1.375-.038 2.5.5 2.5s.749.878.468 1.952c-.281 1.074-.099 2.089.404 2.257.504.168 1.018 1.764 1.144 3.546.126 1.783.615 3.242 1.086 3.243.471.001.598.677.281 1.502-.316.825-.175 1.5.314 1.5.859 0 2.626 5.724 2.238 7.25-.104.412.287.75.869.75.582 0 .781.45.441 1s-.115 1 .5 1 .84.45.5 1c-.34.55-.21 1 .289 1 .89 0 4.347 6.759 4.229 8.269-.033.424.834 1.729 1.927 2.902 1.092 1.172 1.779 2.467 1.526 2.876-.253.409.241 1.012 1.098 1.341.857.329 1.301 1.013.988 1.52-.313.506-.183 1.072.289 1.257.966.377 10.154 11.523 10.154 12.318 0 .728 9.668 9.745 15 13.99 2.475 1.971 5.513 4.436 6.75 5.479 1.238 1.043 2.264 1.593 2.282 1.222.017-.371.58.001 1.25.826s4.93 3.278 9.468 5.45c4.537 2.173 8.25 4.337 8.25 4.809 0 .473.45.581 1 .241.55-.34 1-.115 1 .5s.419.859.931.543c.512-.317 1.218-.111 1.569.457.351.568 1.057.774 1.569.457.512-.316.931-.113.931.453 0 .565.675.768 1.5.452.825-.317 1.5-.092 1.5.5 0 .591.675.816 1.5.5.825-.317 1.5-.092 1.5.5 0 .591.675.816 1.5.5.825-.317 1.5-.12 1.5.437 0 .558.9.778 2 .491 1.1-.288 2-.063 2 .5 0 .562.9.787 2 .5 1.133-.297 2-.031 2 .612 0 .712.933.902 2.5.509 1.473-.37 2.5-.198 2.5.418 0 .636 1.37.823 3.5.477 1.951-.316 3.5-.145 3.5.386 0 1.988 29.616 1.93 32.807-.064.719-.449 2.406-.54 3.75-.203 1.509.379 2.443.182 2.443-.514 0-.704.941-.892 2.5-.5 1.567.393 2.5.203 2.5-.509 0-.643.867-.909 2-.612 1.1.287 2 .062 2-.5 0-.563.9-.788 2-.5 1.1.287 2 .067 2-.491 0-.557.675-.754 1.5-.437.825.316 1.5.091 1.5-.5 0-.592.675-.817 1.5-.5.825.316 1.5.091 1.5-.5 0-.592.675-.817 1.5-.5.825.316 1.5.113 1.5-.452 0-.566.419-.769.931-.453.512.317 1.218.111 1.569-.457.351-.568 1.057-.774 1.569-.457.512.316.931.072.931-.543s.45-.84 1-.5c.55.34 1 .218 1-.27 0-.887 8.814-5.404 10.269-5.263.424.041 1.729-.819 2.902-1.912 1.172-1.092 2.467-1.779 2.876-1.526.409.253 1.026-.277 1.372-1.178.345-.9.864-1.401 1.153-1.113.288.289 1.515-.309 2.726-1.329 1.211-1.019 4.227-3.465 6.702-5.436 5.332-4.245 15-13.262 15-13.99 0-.733 9.081-11.84 10.398-12.718.644-.429.686-.754.102-.781-.55-.026-.126-.708.941-1.516 1.068-.807 1.625-1.468 1.238-1.468s.352-1.687 1.643-3.75c1.291-2.062 3.183-5.662 4.205-8 1.022-2.337 2.248-4.25 2.724-4.25.477 0 .589-.45.249-1-.34-.55-.141-1 .441-1s1.006-.338.941-.75c-.066-.412-.032-.975.074-1.25s.397-1.625.647-3 .867-2.642 1.37-2.815c.503-.173.667-.96.364-1.75-.303-.789-.165-1.436.306-1.437.471-.001.96-1.46 1.086-3.243.126-1.782.64-3.378 1.144-3.546.503-.168.685-1.183.404-2.257-.285-1.09-.009-1.952.625-1.952.712 0 .902-.933.509-2.5-.38-1.514-.201-2.5.456-2.5.66 0 .858-1.124.507-2.879-.328-1.639-.101-3.172.527-3.56.676-.417.868-2.151.497-4.471-.407-2.547-.08-4.805.998-6.889 1.699-3.285 2.323-12.885.668-10.27-1.193 1.885-2.54-4.857-1.576-7.892.379-1.195.151-2.769-.517-3.574-.673-.81-.919-2.537-.564-3.952.397-1.579.209-2.513-.505-2.513-.672 0-.94-1.02-.657-2.5.263-1.375.038-2.5-.5-2.5s-.749-.878-.468-1.952c.281-1.074.099-2.089-.404-2.257-.504-.168-1.018-1.764-1.144-3.546-.126-1.783-.615-3.242-1.086-3.243-.471-.001-.598-.677-.281-1.502.316-.825.091-1.5-.5-1.5-.592 0-.817-.675-.5-1.5.316-.825.113-1.5-.452-1.5-.566 0-.769-.419-.453-.931.317-.512.111-1.218-.457-1.569-.568-.351-.774-1.057-.457-1.569.316-.512.072-.931-.543-.931s-.84-.45-.5-1c.34-.55.115-1-.5-1s-.84-.45-.5-1c.34-.55.19-1-.332-1-.853 0-4.836-8.467-4.01-8.523.188-.013-.655-1.094-1.873-2.402-1.219-1.308-2.009-2.713-1.756-3.122.253-.409-.241-1.012-1.098-1.341-.857-.329-1.301-1.013-.988-1.52.313-.506.183-1.072-.289-1.257C232.188 55.458 223 44.312 223 43.517c0-.728-9.668-9.745-15-13.99-2.475-1.971-5.512-4.436-6.75-5.479-1.238-1.043-2.264-1.593-2.282-1.222-.017.371-.58-.001-1.25-.826s-4.931-3.278-9.468-5.45c-4.537-2.173-8.25-4.337-8.25-4.809 0-.473-.45-.581-1-.241-.55.34-1 .115-1-.5s-.419-.859-.931-.543c-.512.317-1.218.111-1.569-.457-.351-.568-1.057-.774-1.569-.457-.512.316-.931.113-.931-.453 0-.565-.675-.768-1.5-.452-.825.317-1.5.092-1.5-.5 0-.591-.675-.816-1.5-.5-.825.317-1.5.092-1.5-.5 0-.591-.675-.816-1.5-.5-.825.317-1.5.12-1.5-.437 0-.558-.9-.778-2-.491-1.1.288-2 .063-2-.5 0-.562-.9-.787-2-.5-1.133.297-2 .031-2-.612 0-.712-.933-.902-2.5-.509-1.473.37-2.5.198-2.5-.418 0-.636-1.37-.823-3.5-.477-2.055.333-3.5.153-3.5-.437 0-.553-1.912-1.016-4.25-1.028-2.338-.013-6.725-.279-9.75-.593-3.025-.313-6.85-.124-8.5.42m80.236 53.194c-4.293 3.26-4.076 9.998.423 13.149 3.258 2.282 6.551 1.982 9.386-.854C216.373 61.718 213.202 53 206.619 53c-1.78 0-3.977.563-4.883 1.25m-28.234 17.271c-4.723 2.548-6.433 4.508-7.548 8.649-2.164 8.036 4.372 16.103 13.046 16.103 8.75 0 15.211-8.062 13.01-16.234-2.031-7.546-11.896-12.086-18.508-8.518m-60.609 16.853c-26.602 9.391-39.224 39.025-27.33 64.167 5.452 11.526 14.408 19.665 26.937 24.482 8.5 3.267 22.5 3.267 31 0 8.438-3.244 15.799-8.356 20.457-14.207 12.433-15.614 14.39-34.356 5.435-52.029-3.365-6.641-12.039-15.733-18.218-19.096-11.18-6.085-26.643-7.425-38.281-3.317m6.14 11.227c-10.137 2.724-16.875 8.342-22.068 18.399-3.434 6.651-3.919 19.477-1.028 27.147 2.966 7.864 8.773 14.092 16.845 18.066 6.067 2.987 7.498 3.285 15.697 3.267 7.507-.016 9.86-.429 14.021-2.461 7.361-3.595 14.755-11.411 17.346-18.338 2.694-7.2 2.918-18.687.485-24.911-4.119-10.538-12.994-18.46-23.791-21.237-7.225-1.858-10.385-1.846-17.507.068m2.853 13.959c-5.805 1.788-12.465 8.679-13.447 13.913-1.831 9.762 2.297 18.861 10.561 23.279 9.209 4.923 21.378 1.146 26.725-8.294 2.474-4.368 3.037-12.304 1.215-17.143-1.801-4.785-7.951-10.241-13.354-11.845-5.838-1.734-5.775-1.734-11.7.09M.286 127.5c.008 2.75.202 3.756.432 2.236.229-1.52.223-3.77-.014-5-.237-1.23-.425.014-.418 2.764"/></svg>